<mxfile host="app.diagrams.net" modified="2024-03-12T10:12:02.800Z" agent="Mozilla/5.0 (Windows NT 10.0; Win64; x64) AppleWebKit/537.36 (KHTML, like Gecko) Chrome/122.0.0.0 Safari/537.36" etag="tsk-_NVpPUsARJ3UE3RH" version="24.0.5" type="device">
  <diagram name="페이지-1" id="eFPBtdetUuPQxDnZVLNN">
    <mxGraphModel dx="1434" dy="746" grid="1" gridSize="10" guides="1" tooltips="1" connect="1" arrows="1" fold="1" page="1" pageScale="1" pageWidth="827" pageHeight="1169" math="0" shadow="0">
      <root>
        <mxCell id="0" />
        <mxCell id="1" parent="0" />
        <mxCell id="Y-SlUyWaFZ5vvgdqJEss-5" style="edgeStyle=orthogonalEdgeStyle;rounded=0;orthogonalLoop=1;jettySize=auto;html=1;exitX=0.5;exitY=1;exitDx=0;exitDy=0;entryX=0.5;entryY=0;entryDx=0;entryDy=0;" edge="1" parent="1" source="Y-SlUyWaFZ5vvgdqJEss-1" target="Y-SlUyWaFZ5vvgdqJEss-2">
          <mxGeometry relative="1" as="geometry" />
        </mxCell>
        <mxCell id="Y-SlUyWaFZ5vvgdqJEss-1" value="sum=0;&lt;br&gt;입력 N" style="rounded=1;whiteSpace=wrap;html=1;" vertex="1" parent="1">
          <mxGeometry x="294" y="60" width="120" height="60" as="geometry" />
        </mxCell>
        <mxCell id="Y-SlUyWaFZ5vvgdqJEss-6" style="edgeStyle=orthogonalEdgeStyle;rounded=0;orthogonalLoop=1;jettySize=auto;html=1;exitX=0.5;exitY=1;exitDx=0;exitDy=0;entryX=0.5;entryY=0;entryDx=0;entryDy=0;" edge="1" parent="1" source="Y-SlUyWaFZ5vvgdqJEss-2" target="Y-SlUyWaFZ5vvgdqJEss-3">
          <mxGeometry relative="1" as="geometry" />
        </mxCell>
        <mxCell id="Y-SlUyWaFZ5vvgdqJEss-8" style="edgeStyle=orthogonalEdgeStyle;rounded=0;orthogonalLoop=1;jettySize=auto;html=1;exitX=0;exitY=0.5;exitDx=0;exitDy=0;entryX=0;entryY=0.5;entryDx=0;entryDy=0;" edge="1" parent="1" source="Y-SlUyWaFZ5vvgdqJEss-2" target="Y-SlUyWaFZ5vvgdqJEss-4">
          <mxGeometry relative="1" as="geometry">
            <Array as="points">
              <mxPoint x="190" y="230" />
              <mxPoint x="190" y="510" />
            </Array>
          </mxGeometry>
        </mxCell>
        <mxCell id="Y-SlUyWaFZ5vvgdqJEss-9" value="F" style="edgeLabel;html=1;align=center;verticalAlign=middle;resizable=0;points=[];" vertex="1" connectable="0" parent="Y-SlUyWaFZ5vvgdqJEss-8">
          <mxGeometry x="-0.1932" y="1" relative="1" as="geometry">
            <mxPoint as="offset" />
          </mxGeometry>
        </mxCell>
        <mxCell id="Y-SlUyWaFZ5vvgdqJEss-2" value="N!=0" style="rhombus;whiteSpace=wrap;html=1;" vertex="1" parent="1">
          <mxGeometry x="277" y="190" width="154" height="80" as="geometry" />
        </mxCell>
        <mxCell id="Y-SlUyWaFZ5vvgdqJEss-7" style="edgeStyle=orthogonalEdgeStyle;rounded=0;orthogonalLoop=1;jettySize=auto;html=1;exitX=1;exitY=0.5;exitDx=0;exitDy=0;entryX=1;entryY=0.5;entryDx=0;entryDy=0;" edge="1" parent="1" source="Y-SlUyWaFZ5vvgdqJEss-3" target="Y-SlUyWaFZ5vvgdqJEss-2">
          <mxGeometry relative="1" as="geometry" />
        </mxCell>
        <mxCell id="Y-SlUyWaFZ5vvgdqJEss-10" value="T" style="edgeLabel;html=1;align=center;verticalAlign=middle;resizable=0;points=[];" vertex="1" connectable="0" parent="Y-SlUyWaFZ5vvgdqJEss-7">
          <mxGeometry x="-0.193" y="-2" relative="1" as="geometry">
            <mxPoint as="offset" />
          </mxGeometry>
        </mxCell>
        <mxCell id="Y-SlUyWaFZ5vvgdqJEss-3" value="sum += N" style="rounded=1;whiteSpace=wrap;html=1;" vertex="1" parent="1">
          <mxGeometry x="229" y="340" width="250" height="60" as="geometry" />
        </mxCell>
        <mxCell id="Y-SlUyWaFZ5vvgdqJEss-4" value="sum 출력" style="rounded=0;whiteSpace=wrap;html=1;" vertex="1" parent="1">
          <mxGeometry x="294" y="480" width="120" height="60" as="geometry" />
        </mxCell>
      </root>
    </mxGraphModel>
  </diagram>
</mxfile>
